<svg width="52" height="52" viewBox="0 0 52 52" fill="none" xmlns="http://www.w3.org/2000/svg">
<path d="M50.3525 29.6656C48.9933 24.2906 47.6804 23.7757 43.3299 22.8233L42.6451 22.6534C39.8083 22.0201 34.7061 18.1947 33.0277 16.9334C31.2587 15.6265 29.1158 14.9242 26.9164 14.9306H18.3132C16.1148 14.9306 15.6103 15.2138 14.9152 15.914L14.8329 16.0066L12.1917 19.6672C11.8416 20.0225 11.5481 20.3777 11.2855 20.6969C10.642 21.4795 10.2146 21.9995 9.42691 22.1488L5.26176 22.6637C3.28473 23.0395 2.05939 24.1979 2.05939 25.7425V33.2078C2.05939 33.4126 2.14075 33.6091 2.28558 33.7539C2.43041 33.8987 2.62684 33.9801 2.83166 33.9801H6.73939C6.9748 35.0013 7.54944 35.9126 8.36951 36.5651C9.18958 37.2176 10.2066 37.5729 11.2546 37.5729C12.3026 37.5729 13.3197 37.2176 14.1398 36.5651C14.9598 35.9126 15.5345 35.0013 15.7699 33.9801H33.5117C33.7471 35.0013 34.3217 35.9126 35.1418 36.5651C35.9619 37.2176 36.9789 37.5729 38.0269 37.5729C39.0749 37.5729 40.092 37.2176 40.912 36.5651C41.7321 35.9126 42.3067 35.0013 42.5422 33.9801H47.0008C47.5275 33.9789 48.047 33.8577 48.5199 33.6257C48.9927 33.3936 49.4064 33.0568 49.7296 32.6408C50.0527 32.2249 50.2767 31.7407 50.3847 31.2252C50.4926 30.7096 50.4816 30.1763 50.3525 29.6656ZM12.48 21.6751C12.7426 21.3559 12.9948 21.0264 13.3295 20.7124L13.3861 20.594L16.0273 16.9334C16.362 16.5987 16.5833 16.4494 18.2875 16.4494H26.8855C28.7531 16.4483 30.5713 17.0495 32.0701 18.1639C34.3045 19.8423 36.1889 21.1448 37.8055 22.1128H12.063L12.48 21.6751ZM11.2598 36.0395C10.6488 36.0395 10.0516 35.8583 9.54357 35.5189C9.03557 35.1795 8.63963 34.697 8.40582 34.1325C8.17201 33.5681 8.11084 32.947 8.23003 32.3477C8.34923 31.7485 8.64343 31.1981 9.07545 30.7661C9.50747 30.334 10.0579 30.0398 10.6571 29.9206C11.2564 29.8014 11.8775 29.8626 12.4419 30.0964C13.0064 30.3302 13.4888 30.7262 13.8283 31.2342C14.1677 31.7422 14.3489 32.3394 14.3489 32.9504C14.3489 33.7697 14.0234 34.5554 13.4441 35.1347C12.8648 35.714 12.0791 36.0395 11.2598 36.0395ZM38.0321 36.0395C37.4211 36.0395 36.8238 35.8583 36.3158 35.5189C35.8078 35.1795 35.4119 34.697 35.1781 34.1325C34.9443 33.5681 34.8831 32.947 35.0023 32.3477C35.1215 31.7485 35.4157 31.1981 35.8477 30.7661C36.2798 30.334 36.8302 30.0398 37.4294 29.9206C38.0286 29.8014 38.6498 29.8626 39.2142 30.0964C39.7787 30.3302 40.2611 30.7262 40.6006 31.2342C40.94 31.7422 41.1212 32.3394 41.1212 32.9504C41.1212 33.7697 40.7957 34.5554 40.2164 35.1347C39.6371 35.714 38.8513 36.0395 38.0321 36.0395ZM48.5093 31.6993C48.331 31.9294 48.1023 32.1154 47.8408 32.2431C47.5792 32.3707 47.2918 32.4366 47.0008 32.4355H42.6297C42.4987 31.3067 41.9574 30.2653 41.1088 29.5095C40.2601 28.7537 39.1633 28.336 38.0269 28.336C36.8905 28.336 35.7937 28.7537 34.9451 29.5095C34.0964 30.2653 33.5551 31.3067 33.4241 32.4355H15.8574C15.7264 31.3067 15.1851 30.2653 14.3365 29.5095C13.4879 28.7537 12.3911 28.336 11.2546 28.336C10.1182 28.336 9.0214 28.7537 8.17277 29.5095C7.32414 30.2653 6.78287 31.3067 6.65186 32.4355H3.60394V25.7425C3.60394 24.6561 5.09186 24.2906 5.50374 24.1979L9.56077 23.6831H40.7968C41.284 23.8975 41.7887 24.0698 42.3053 24.1979L43.0004 24.3524C46.9544 25.2173 47.6701 25.3821 48.8542 30.0621C48.9244 30.3433 48.9298 30.6367 48.87 30.9203C48.8103 31.2039 48.6869 31.4703 48.5093 31.6993Z" fill="#FBB667"/>
</svg>
