<svg width="46" height="47" viewBox="0 0 46 47" fill="none" xmlns="http://www.w3.org/2000/svg">
<path d="M40.0025 29.769L31.5701 16.4072L35.1304 10.8456C35.9215 9.61165 36.2364 8.16179 35.9743 6.96633C35.7927 6.1417 35.3605 5.49079 34.7229 5.08329L34.5258 4.95586C32.8962 3.91579 30.5241 4.81331 29.1219 7.00025L25.7757 12.2304L7.16403 10.4927C6.90688 10.4693 6.65935 10.5898 6.52092 10.8071L5.14211 12.9633C5.02843 13.1407 5.00276 13.3603 5.07152 13.5588C5.14028 13.7573 5.29659 13.914 5.49552 13.9832L21.1667 19.432L15.2522 28.6744L6.01166 29.5723C5.77055 29.5962 5.5597 29.7442 5.45656 29.9638L4.7259 31.5122C4.63422 31.7066 4.63881 31.933 4.73782 32.1232C4.83729 32.3139 5.02018 32.4473 5.23241 32.4831L15.8898 34.2946L21.9986 43.2129C22.1201 43.3903 22.3172 43.5007 22.5322 43.5108C22.5437 43.5113 22.5547 43.5117 22.5661 43.5117C22.7687 43.5117 22.9617 43.4224 23.0923 43.2665L24.1943 41.9551C24.3501 41.7694 24.3969 41.5155 24.3171 41.2863L21.2607 32.5188L27.0193 23.519L37.5845 32.8076C37.7349 32.9396 37.9348 33.0006 38.1341 32.9717C38.3326 32.9437 38.5086 32.8305 38.6173 32.6623L40.0002 30.5074C40.1437 30.2828 40.1446 29.995 40.0025 29.769ZM37.8912 31.2468L27.3255 21.9577C27.1752 21.8252 26.9767 21.7661 26.7754 21.7931C26.577 21.8211 26.4009 21.9348 26.2923 22.1035L19.9217 32.0591C19.808 32.2369 19.7824 32.4569 19.8516 32.6563L22.8897 41.3702L22.6216 41.6892L16.8959 33.3302C16.8446 33.2554 16.7791 33.1913 16.703 33.1418L16.6049 33.0781C16.5265 33.0272 16.4385 32.9928 16.3463 32.9772L6.35636 31.2794L6.53376 30.903L15.7184 30.011C15.9283 29.9904 16.1176 29.8749 16.2313 29.697L22.7949 19.4394C22.9081 19.262 22.9342 19.0424 22.8654 18.8435C22.7967 18.6445 22.6404 18.4882 22.4414 18.419L6.76937 12.9702L7.45327 11.9008L26.065 13.6385C26.3244 13.6633 26.5701 13.5409 26.7081 13.3245L30.2798 7.74191C31.2327 6.25492 32.8375 5.50821 33.7777 6.10961L33.983 6.24254C34.391 6.5029 34.5606 6.9402 34.6307 7.26107C34.8168 8.1077 34.5707 9.17023 33.972 10.104L30.1762 16.034C30.0327 16.2586 30.0318 16.5461 30.1739 16.7716L38.6058 30.1334L37.8912 31.2468Z" fill="#FBB667"/>
</svg>
